<svg xmlns="http://www.w3.org/2000/svg" width="69.344" height="68.948" viewBox="0 0 69.344 68.948">
  <path id="Icon_awesome-flag" data-name="Icon awesome-flag" d="M47.557,13.3c-7.373,0-13.462-4.684-22.732-4.684a27.26,27.26,0,0,0-9.362,1.618,7.389,7.389,0,0,0,.493-3.173A7.654,7.654,0,0,0,8.589.006,7.632,7.632,0,0,0,.562,7.541a7.486,7.486,0,0,0,3.3,6.187V65.716a3.268,3.268,0,0,0,3.3,3.232h2.2a3.268,3.268,0,0,0,3.3-3.232V53a39.161,39.161,0,0,1,15.745-2.979c7.373,0,13.462,4.684,22.732,4.684A29.216,29.216,0,0,0,68,49.206a4.276,4.276,0,0,0,1.9-3.549V12.92a4.4,4.4,0,0,0-6.258-3.907C58.923,11.16,53.129,13.3,47.557,13.3Z" transform="translate(-0.563)" fill="#60c2c1"/>
</svg>
