<svg xmlns="http://www.w3.org/2000/svg" width="55.982" height="63.98" viewBox="0 0 55.982 63.98">
  <path id="Icon_awesome-flask" data-name="Icon awesome-flask" d="M54.633,50.422,39.987,26.867V8h1a2.992,2.992,0,0,0,3-3V3a2.992,2.992,0,0,0-3-3H14.995a2.992,2.992,0,0,0-3,3V5a2.992,2.992,0,0,0,3,3h1V26.867L1.349,50.422a8.875,8.875,0,0,0,7.51,13.558H47.123A8.873,8.873,0,0,0,54.633,50.422Zm-37.4-10.434,6.023-9.7a3.959,3.959,0,0,0,.725-2.3V8h8V27.991a4.021,4.021,0,0,0,.725,2.3l6.023,9.7H17.232Z" transform="translate(-0.001)" fill="#60c2c1"/>
</svg>
