<svg xmlns="http://www.w3.org/2000/svg" width="68.501" height="65.777" viewBox="0 0 68.501 65.777">
  <g id="like" transform="translate(0 -8.398)">
    <g id="Grupo_6" data-name="Grupo 6" transform="translate(0 30.787)">
      <g id="Grupo_5" data-name="Grupo 5" transform="translate(0 0)">
        <path id="Caminho_3" data-name="Caminho 3" d="M10.847,167.256H2.17A2.173,2.173,0,0,0,0,169.425v39.05a2.17,2.17,0,0,0,2.17,2.169h8.678a2.17,2.17,0,0,0,2.17-2.169v-39.05A2.173,2.173,0,0,0,10.847,167.256Z" transform="translate(0 -167.256)" fill="#e95048"/>
      </g>
    </g>
    <g id="Grupo_8" data-name="Grupo 8" transform="translate(17.356 10.433)">
      <g id="Grupo_7" data-name="Grupo 7" transform="translate(0 0)">
        <path id="Caminho_4" data-name="Caminho 4" d="M177.4,30.787c-.349-.059-16.709,0-16.709,0l2.285-6.234c1.577-4.306.556-10.88-3.819-13.217a7.5,7.5,0,0,0-5.019-.739,3.62,3.62,0,0,0-2.211,1.657,9.009,9.009,0,0,0-.694,3.075,13.282,13.282,0,0,1-3.68,7.034c-3.368,3.285-13.831,12.762-13.831,12.762V69.837h36.157a6.57,6.57,0,0,0,5.67-9.7,6.568,6.568,0,0,0,2.17-8.678,6.568,6.568,0,0,0,2.169-8.678C184.842,39.61,183.187,31.765,177.4,30.787Z" transform="translate(-133.726 -10.433)" fill="none" stroke="#e95048" stroke-width="4"/>
      </g>
    </g>
  </g>
</svg>
